# xmcd CD database file
#
# Track frame offsets:
#	150
#	12526
#	33056
#	47646
#	63716
#	83743
#	103891
#	124820
#	136766
#	155928
#	172321
#	190607
#	206886
#
# Disc length: 3003 seconds
#
# Revision: 1
# Processed by: cddbd v1.5.2PL0 Copyright (c) Steve Scherf et al.
# Submitted via: CDex 1.51
#
DISCID=bc0bb90d
DTITLE=Cyndi Lauper - At Last
DYEAR=2003
DGENRE=Folk
TTITLE0=At Last
TTITLE1=Walk On By
TTITLE2=Stay
TTITLE3=La vie en rose
TTITLE4=Unchained Melody
TTITLE5=If You Go Away
TTITLE6=Until You Come Back To Me (That's What I'm Gonna Do)
TTITLE7=My Baby Just Cares For Me
TTITLE8=Makin' Whoopee (Duet with Tony Bennett)
TTITLE9=Don't Let Me Be Misunderstood
TTITLE10=You've Really Got A Hold On Me
TTITLE11=Hymn To Love
TTITLE12=On The Sunny Side Of The Street
EXTD=YEAR: 2003
EXTT0=
EXTT1=
EXTT2=
EXTT3=
EXTT4=
EXTT5=
EXTT6=
EXTT7=
EXTT8=
EXTT9=
EXTT10=
EXTT11=
EXTT12=
PLAYORDER=
